<svg width="264" height="172" viewBox="0 0 264 172" fill="none" xmlns="http://www.w3.org/2000/svg">
<rect width="264" height="172" rx="16" fill="#70B9BE"/>
<mask id="mask0_160_1407" style="mask-type:alpha" maskUnits="userSpaceOnUse" x="0" y="0" width="264" height="172">
<rect width="264" height="172" rx="16" fill="white"/>
</mask>
<g mask="url(#mask0_160_1407)">
<circle cx="271" cy="30" r="151" fill="url(#paint0_linear_160_1407)" fill-opacity="0.3"/>
<path d="M-135.173 16.0734C-127.256 14.0126 -105.869 16.9422 -83.654 45.1472C-55.8854 80.4034 1.8165 152.298 40.4604 106.076C79.1044 59.8543 88.8406 11.1877 65.7501 5.59588C42.6596 0.00402323 28.8346 49.1096 88.0498 70.8998C147.265 92.69 218.815 43.8429 216.823 -30.6033" stroke="#3DA0A7"/>
<path d="M275.926 165.624C278.953 193.531 252.429 201.389 239.597 195.077C193.725 171.888 214.034 160.584 233.725 134.655C253.415 108.727 272.899 137.716 275.926 165.624Z" stroke="#3DA0A7"/>
<path d="M276.712 97.0655C305.927 67.8497 305.927 20.4816 276.712 -8.73416C247.496 -37.9499 200.128 -37.9499 170.912 -8.73416C141.696 20.4816 141.696 67.8497 170.912 97.0655C200.128 126.281 247.496 126.281 276.712 97.0655Z" fill="#3DA0A7"/>
<path d="M223.815 116.649C263.846 116.649 296.298 84.1971 296.298 44.1658C296.298 4.13459 263.846 -28.3171 223.815 -28.3171C183.784 -28.3171 151.332 4.13459 151.332 44.1658C151.332 84.1971 183.784 116.649 223.815 116.649Z" fill="#FFF6FA"/>
<path d="M274.121 94.4744C301.905 66.6895 301.905 21.6413 274.121 -6.14353C246.336 -33.9284 201.288 -33.9284 173.503 -6.14353C145.718 21.6413 145.718 66.6895 173.503 94.4744C201.288 122.259 246.336 122.259 274.121 94.4744Z" fill="#BCE5E8"/>
<path d="M194.154 108.834C203.184 112.983 213.224 115.314 223.815 115.314C263.109 115.314 294.964 83.4599 294.964 44.166C294.964 21.4405 284.294 1.21853 267.707 -11.8074C269.338 -3.37317 269.911 5.32336 270.446 13.9213C271.031 23.3124 271.608 32.8169 269.89 42.0674C267.766 53.4921 262.224 64.0123 255.794 73.691C248.774 84.2553 240.438 94.211 229.786 101.096C219.312 107.869 206.34 111.411 194.154 108.834Z" fill="#8FD2D7"/>
<path d="M264.189 84.5427C286.488 62.2431 286.488 26.0882 264.189 3.78848C241.889 -18.5112 205.734 -18.5112 183.434 3.78848C161.135 26.0882 161.135 62.2431 183.434 84.5427C205.734 106.842 241.889 106.842 264.189 84.5427Z" fill="#FFF6FA"/>
<path d="M223.815 98.817C253.998 98.817 278.467 74.3488 278.467 44.1657C278.467 13.9826 253.998 -10.4856 223.815 -10.4856C193.632 -10.4856 169.164 13.9826 169.164 44.1657C169.164 74.3488 193.632 98.817 223.815 98.817Z" fill="#ADDFE2"/>
<path d="M258.209 78.5625C277.206 59.5656 277.206 28.7655 258.209 9.76855C239.212 -9.22838 208.412 -9.2284 189.415 9.76853C170.418 28.7655 170.418 59.5656 189.415 78.5625C208.412 97.5595 239.212 97.5595 258.209 78.5625Z" fill="#FFF6FA"/>
<path d="M223.815 90.771C249.922 90.771 271.086 69.9051 271.086 44.1656C271.086 18.4262 249.922 -2.4397 223.815 -2.4397C197.709 -2.4397 176.545 18.4262 176.545 44.1656C176.545 69.9051 197.709 90.771 223.815 90.771Z" fill="#BCE5E8"/>
<path d="M191.977 19.8984C181.742 23.3741 174.014 30.7335 169.861 40.6908C165.37 51.4626 169.457 61.6194 177.754 69.0925C185.175 75.7755 196.392 78.5131 205.829 74.7616C214.944 71.1369 222.211 61.3547 220.3 51.17C218.452 41.3207 210.2 34.2483 200.052 35.0105C188.719 35.8622 181.403 45.7282 178.028 55.6595C176.393 60.4695 175.724 65.6206 176.597 70.6356C177.581 76.2936 182.215 81.2526 186.397 84.8103C194.855 92.002 206.292 94.3297 216.94 91.5939C239.131 85.8931 249.039 57.7971 240.713 38.0054C236.706 28.4823 228.083 21.2589 217.555 21.1638C208.094 21.0781 198.88 27.4256 195.559 36.2499C191.899 45.9761 193.785 56.6006 200.432 64.5434C207.635 73.1496 218.603 73.1235 228.139 68.8949C237.313 64.8267 237.999 52.3199 232.349 45.076C226.516 37.5972 215.386 35.3404 207.501 41.1829C199.575 47.057 194.534 58.9637 198.634 68.429C202.564 77.4974 211.016 82.6746 220.574 83.9586C242.062 86.8473 264.215 63.9824 260.07 42.5675C255.926 21.1452 223.69 15.0325 211.226 32.0045C204.161 41.6264 200.404 53.5126 199.426 65.3149C198.962 70.9039 199.284 76.7389 200.725 82.1658C202.262 87.9598 206.502 92.0952 210.904 95.869C215.228 99.5758 219.7 102.96 225.39 104.106C230.476 105.131 235.746 103.24 240.456 101.542C243.139 100.575 242.122 96.2157 239.408 97.1941C232.585 99.6541 226.652 101.11 219.991 97.2258C213.996 93.7296 207.304 87.8238 205.071 81.1185C200.982 68.8372 204.836 53.2349 210.371 42.0532C213.435 35.8641 217.147 30.0421 224.033 27.9101C230.517 25.903 237.798 26.3857 243.952 29.2035C249.438 31.7156 253.544 36.6822 255.394 42.3588C257.651 49.2822 254.725 56.8596 251.335 62.8717C244.839 74.4001 231.834 81.5676 218.612 79.1579C213.204 78.1721 208.645 75.1511 205.192 70.9561C200.622 65.4044 200.936 58.5034 204.029 52.3665C207.332 45.8158 213.086 41.3487 220.671 42.575C227.885 43.7416 232.461 51.3545 231.314 58.2816C230.155 65.2795 221.201 67.4338 215.213 67.432C207.775 67.4301 201.897 60.7714 199.482 54.3382C194.914 42.1761 201.599 28.7991 214.3 25.9701C228.128 22.8895 237.217 36.8723 239.183 48.6616C241.427 62.1207 233.922 77.1676 222.563 84.3556C210.727 91.8455 195.537 88.0977 186.204 78.5243C180.971 73.1552 179.862 67.1283 181.451 60.0185C183.116 52.5808 187.003 45.4971 193.714 41.5761C207.654 33.4302 220.727 49.066 213.877 62.2996C207.061 75.4642 189.42 73.6025 179.919 65.0485C175.04 60.6559 171.924 54.7985 172.478 48.1752C173.045 41.4084 177.349 35.0776 182.141 30.5639C185.221 27.6641 189.033 25.5973 193.017 24.2444C195.732 23.3256 194.709 18.9685 191.977 19.8984Z" fill="#FFA25F"/>
<path d="M199.342 84.3461C208.088 90.6973 218.558 92.7585 229.087 90.401C240.476 87.8516 246.412 78.6509 247.722 67.5623C248.894 57.6441 244.656 46.904 236.145 41.3654C227.925 36.0149 215.742 35.7279 208.528 43.1675C201.552 50.3611 200.54 61.185 207.02 69.029C214.257 77.7899 226.536 78.0713 236.596 75.0932C241.467 73.6508 246.059 71.2243 249.651 67.6163C253.702 63.5462 255.078 56.8987 255.568 51.4308C256.559 40.3739 251.857 29.6916 243.476 22.5744C226.012 7.74555 197.35 15.8728 185.995 34.0972C180.533 42.8656 179.61 54.0771 185.611 62.7281C191.002 70.5031 201.506 74.3627 210.628 71.981C220.684 69.3551 228.269 61.6826 230.918 51.6693C233.788 40.8193 227.434 31.8795 218.476 26.5327C209.859 21.3891 199.251 28.0498 196.597 36.8442C193.857 45.9238 198.438 56.3153 207.762 59.381C217.132 62.4616 229.766 59.7071 235.127 50.894C240.265 42.45 239.611 32.5597 235.144 24.0131C225.099 4.79915 193.641 -0.0909722 178.548 15.6548C163.447 31.4061 177.064 61.2558 198.118 61.636C210.054 61.8522 221.927 58.0578 232.129 52.0439C236.959 49.1963 241.538 45.5659 245.139 41.2554C248.982 36.656 249.912 30.8079 250.454 25.0325C250.985 19.3634 251.166 13.7557 248.818 8.44812C246.719 3.70334 242.133 0.492343 238.027 -2.37391C235.687 -4.00645 232.716 -0.659368 235.081 0.98994C241.028 5.14023 245.642 9.14702 246.315 16.827C246.92 23.7392 245.961 32.6138 241.775 38.3072C234.106 48.736 219.143 54.5952 206.815 56.5296C199.993 57.6012 193.095 57.9293 187.38 53.5386C181.997 49.4032 178.19 43.1787 176.938 36.5274C175.821 30.5973 177.508 24.3784 181.073 19.5907C185.423 13.752 193.3 11.7672 200.166 11.0628C213.329 9.71353 226.691 16.1952 232.354 28.3815C234.671 33.3667 234.835 38.8327 233.404 44.0732C231.508 51.0096 225.692 54.7369 218.895 55.7525C211.64 56.8372 204.67 54.7163 201.293 47.8153C198.082 41.2498 201.657 33.1207 207.974 30.0588C214.357 26.9651 221.286 33.0331 224.741 37.9251C229.032 43.9987 226.989 52.6422 223.129 58.3299C215.835 69.0812 201.053 71.3436 191.412 62.6069C180.916 53.0931 187.085 37.6008 195.578 29.1903C205.272 19.5889 221.892 17.0301 234.319 22.157C247.267 27.4981 252.975 42.0661 250.543 55.2121C249.181 62.5846 244.898 66.9697 238.174 69.7744C231.141 72.7078 223.111 73.6228 216.036 70.4081C201.338 63.727 206.558 44.0248 221.32 41.9804C236.003 39.9453 244.667 55.4264 243.165 68.1214C242.394 74.6423 239.412 80.5667 233.683 83.938C227.831 87.382 220.176 87.5217 213.724 86.2135C209.577 85.373 205.69 83.4535 202.285 80.9804C199.972 79.3013 197.005 82.6502 199.342 84.3461Z" fill="#FFA25F"/>
<path d="M209.745 84.3461C218.491 90.6973 228.961 92.7585 239.49 90.401C250.879 87.8516 256.814 78.6509 258.125 67.5623C259.297 57.6441 255.059 46.904 246.548 41.3654C238.327 36.0149 226.145 35.7279 218.931 43.1675C211.955 50.3611 210.943 61.185 217.423 69.029C224.659 77.7899 236.939 78.0713 246.999 75.0932C251.87 73.6508 256.462 71.2243 260.053 67.6163C264.105 63.5462 265.48 56.8987 265.97 51.4308C266.962 40.3739 262.26 29.6916 253.879 22.5744C236.415 7.74555 207.753 15.8728 196.398 34.0972C190.935 42.8656 190.013 54.0771 196.014 62.7281C201.405 70.5031 211.909 74.3627 221.031 71.981C231.087 69.3551 238.672 61.6826 241.32 51.6693C244.19 40.8193 237.837 31.8795 228.879 26.5327C220.261 21.3891 209.654 28.0498 207 36.8442C204.26 45.9238 208.841 56.3153 218.165 59.381C227.535 62.4616 240.169 59.7071 245.53 50.894C250.668 42.45 250.014 32.5597 245.547 24.0131C235.502 4.79915 204.044 -0.0909722 188.951 15.6548C173.85 31.4061 187.467 61.2558 208.52 61.636C220.457 61.8522 232.33 58.0578 242.532 52.0439C247.362 49.1963 251.941 45.5659 255.542 41.2554C259.384 36.656 260.314 30.8079 260.857 25.0325C261.388 19.3634 261.569 13.7557 259.22 8.44812C257.122 3.70334 252.536 0.492343 248.43 -2.37391C246.089 -4.00645 243.119 -0.659368 245.484 0.98994C251.43 5.14023 256.045 9.14702 256.717 16.827C257.323 23.7392 256.363 32.6138 252.178 38.3072C244.509 48.736 229.546 54.5952 217.218 56.5296C210.395 57.6012 203.498 57.9293 197.782 53.5386C192.4 49.4032 188.593 43.1787 187.34 36.5274C186.224 30.5973 187.911 24.3784 191.476 19.5907C195.825 13.752 203.703 11.7672 210.569 11.0628C223.731 9.71353 237.094 16.1952 242.757 28.3815C245.074 33.3667 245.238 38.8327 243.806 44.0732C241.911 51.0096 236.095 54.7369 229.298 55.7525C222.043 56.8372 215.073 54.7163 211.696 47.8153C208.485 41.2498 212.059 33.1207 218.377 30.0588C224.762 26.9651 231.689 33.0331 235.144 37.9251C239.434 43.9987 237.392 52.6422 233.532 58.3299C226.238 69.0812 211.456 71.3436 201.815 62.6069C191.317 53.0931 197.488 37.6008 205.98 29.1903C215.675 19.5889 232.295 17.0301 244.721 22.157C257.67 27.4981 263.378 42.0661 260.946 55.2121C259.584 62.5846 255.301 66.9697 248.577 69.7744C241.544 72.7078 233.514 73.6228 226.439 70.4081C211.741 63.727 216.961 44.0248 231.723 41.9804C246.406 39.9453 255.07 55.4264 253.568 68.1214C252.796 74.6423 249.815 80.5667 244.086 83.938C238.234 87.382 230.578 87.5217 224.126 86.2135C219.98 85.373 216.092 83.4535 212.688 80.9804C210.377 79.3013 207.41 82.6502 209.745 84.3461Z" fill="#FFA25F"/>
<path d="M188.056 65.5233C190.647 76.0174 197.318 84.3459 206.886 89.333C217.235 94.7282 227.703 91.5228 235.856 83.8931C243.149 77.0685 246.833 66.1271 243.9 56.4046C241.067 47.0138 231.941 38.9387 221.629 39.973C211.659 40.9738 203.906 48.5923 203.8 58.7677C203.681 70.1302 212.887 78.265 222.494 82.4749C227.147 84.5137 232.222 85.6207 237.293 85.179C243.014 84.6814 248.352 80.4864 252.252 76.6231C260.139 68.8108 263.436 57.6141 261.619 46.7697C257.832 24.1751 230.685 11.9031 210.256 18.5097C200.425 21.689 192.493 29.6635 191.5 40.1445C190.607 49.5651 196.146 59.2858 204.653 63.3485C214.033 67.8249 224.779 66.8521 233.258 60.9071C242.448 54.4646 243.357 43.5363 239.958 33.6721C236.687 24.1844 224.285 22.4345 216.586 27.4458C208.638 32.6192 205.438 43.5158 210.587 51.8704C215.763 60.2679 227.196 66.3079 236.976 63.0298C246.348 59.8877 252.226 51.9077 254.323 42.4945C259.036 21.3312 238.145 -2.69093 216.454 -0.391215C194.756 1.91036 185.915 33.5044 201.761 47.3716C210.746 55.2324 222.267 59.9902 233.942 61.9731C239.47 62.9124 245.312 63.0895 250.843 62.1166C256.747 61.0786 261.229 57.2097 265.367 53.1451C269.429 49.1551 273.183 44.9862 274.81 39.4158C276.265 34.4362 274.83 29.0243 273.541 24.1863C272.804 21.43 268.376 22.071 269.12 24.8572C270.989 31.8644 271.932 37.9026 267.495 44.2053C263.501 49.8801 257.044 56.0431 250.173 57.6961C237.586 60.7226 222.371 55.5511 211.702 49.0806C205.796 45.4987 200.313 41.3036 198.776 34.261C197.328 27.6284 198.431 20.418 201.765 14.5252C204.735 9.27355 210.034 5.60595 215.848 4.24737C222.938 2.58875 230.239 6.15197 235.94 10.0414C246.87 17.4977 252.905 31.0668 249.375 44.0358C247.931 49.3396 244.531 53.6241 240.057 56.7065C234.134 60.786 227.287 59.884 221.435 56.2779C215.19 52.4276 211.23 46.3131 213.101 38.8605C214.879 31.7712 222.856 27.8632 229.66 29.5964C236.535 31.3482 237.915 40.4538 237.403 46.4212C236.766 53.8309 229.632 59.1199 223.014 60.978C210.505 64.4909 197.749 56.6898 196.016 43.7935C194.128 29.7529 208.834 21.8903 220.748 20.938C234.35 19.8515 248.7 28.6124 254.893 40.5452C261.345 52.9774 256.313 67.7932 245.979 76.2727C240.183 81.0287 234.084 81.6195 227.136 79.4278C219.868 77.1356 213.14 72.6573 209.806 65.6351C202.879 51.0504 219.576 39.3599 232.176 47.3138C244.71 55.2287 241.35 72.6461 232.015 81.3809C227.222 85.8667 221.12 88.472 214.568 87.3538C207.874 86.2133 201.933 81.3828 197.846 76.2224C195.218 72.9052 193.485 68.9319 192.478 64.8468C191.793 62.0738 187.365 62.7223 188.056 65.5233Z" fill="#EABF58"/>
<path d="M184.64 26.8903C177.361 35.6345 174.467 46.4863 176.209 57.7091C178.095 69.8487 187.344 76.7218 198.9 78.8706C209.234 80.792 220.811 77.0871 227.22 68.5349C233.411 60.2716 234.561 47.4983 227.25 39.4046C220.179 31.5773 208.884 29.7622 200.192 36.0221C190.486 43.0126 189.336 55.8902 191.765 66.6619C192.941 71.8782 195.17 76.8709 198.709 80.8944C202.7 85.4324 209.587 87.3389 215.297 88.2353C226.84 90.0449 238.387 85.8517 246.445 77.5436C263.235 60.2324 256.693 29.5646 238.344 16.3702C229.516 10.0226 217.805 8.27459 208.301 13.9736C199.758 19.0948 194.974 29.8572 196.841 39.604C198.899 50.3478 206.43 58.8496 216.763 62.3272C227.958 66.0954 237.791 60.0479 244.03 51.0094C250.031 42.3174 243.775 30.7108 234.723 27.3134C225.377 23.8042 214.143 27.893 210.276 37.4701C206.389 47.0976 208.403 60.5586 217.285 66.8036C225.796 72.7877 236.229 72.7895 245.517 68.6914C266.397 59.4777 273.721 26.7804 258.235 9.83072C242.742 -7.12454 210.444 5.09709 208.58 27.1848C207.523 39.7065 210.68 52.4406 216.286 63.5739C218.94 68.8461 222.436 73.9077 226.711 77.9891C231.275 82.3462 237.353 83.729 243.38 84.7C249.297 85.6523 255.173 86.2319 260.911 84.1353C266.041 82.2605 269.733 77.6667 273.028 73.5555C274.907 71.2111 271.599 67.8584 269.7 70.227C264.925 76.1851 260.398 80.751 252.284 80.9243C244.982 81.079 235.728 79.4539 230.04 74.6606C219.62 65.8811 214.508 49.757 213.334 36.6744C212.684 29.4342 212.82 22.1679 217.829 16.4708C222.548 11.1054 229.348 7.54031 236.423 6.68863C242.729 5.92827 249.144 8.13296 253.924 12.2124C259.755 17.1865 261.289 25.5989 261.552 32.8577C262.053 46.7771 254.315 60.3592 241.123 65.4599C235.726 67.5472 229.973 67.3385 224.568 65.4692C217.414 62.9962 213.905 56.6282 213.312 49.4178C212.678 41.7211 215.39 34.5498 222.872 31.4842C229.991 28.5676 238.281 32.8875 241.058 39.7382C243.862 46.6578 237.006 53.5122 231.629 56.8015C224.95 60.8847 216.016 58.1377 210.311 53.6892C199.529 45.2787 198.179 29.5982 208.029 20.0807C218.752 9.7189 234.593 17.2759 242.835 26.7804C252.245 37.6304 253.775 55.264 247.526 67.959C241.015 81.1852 225.317 86.1667 211.679 82.7003C204.031 80.7547 199.724 75.954 197.246 68.697C194.653 61.1065 194.251 52.6083 198.121 45.4017C206.161 30.4293 226.49 37.2838 227.61 52.9289C228.724 68.4939 211.864 76.5149 198.634 74.0549C191.839 72.7914 185.825 69.2468 182.683 62.9944C179.474 56.6077 179.86 48.5587 181.682 41.8739C182.855 37.5782 185.141 33.6273 187.974 30.2244C189.895 27.9041 186.584 24.5552 184.64 26.8903Z" fill="#F7D075"/>
<path d="M259.714 20.6159C258.035 9.36338 251.863 -0.0218048 242.328 -6.1904C232.015 -12.864 220.729 -10.5364 211.431 -3.34464C203.118 3.08859 198.177 14.192 200.293 24.6693C202.337 34.7907 211.103 44.1517 222.011 44.0827C232.559 44.0175 241.434 36.796 242.547 26.1435C243.791 14.2461 234.947 4.81613 225.291 -0.54179C220.615 -3.13782 215.407 -4.7964 210.049 -4.83368C204.005 -4.87654 197.998 -1.0058 193.529 2.65808C184.495 10.0679 179.936 21.4769 180.773 33.0184C182.514 57.0703 209.754 72.6055 231.816 67.6948C242.431 65.3318 251.529 57.7561 253.603 46.8707C255.467 37.0867 250.622 26.3522 242.105 21.2571C232.718 15.6401 221.361 15.6009 211.886 20.9961C201.621 26.8423 199.59 38.2049 202.18 48.876C204.672 59.1408 217.498 62.1971 226.059 57.7039C234.898 53.0654 239.326 41.9619 234.753 32.6997C230.157 23.389 218.77 15.9327 208.198 18.4038C198.067 20.7725 191.12 28.555 187.996 38.2142C180.972 59.9273 200.498 87.1604 223.454 86.8883C246.419 86.6144 258.799 54.3755 243.558 38.2812C234.919 29.1569 223.314 23.0368 211.273 19.809C205.572 18.2809 199.469 17.5186 193.576 17.9939C187.286 18.4989 182.208 22.1143 177.472 25.9645C172.823 29.7458 168.479 33.7452 166.224 39.4218C164.207 44.4983 165.178 50.3109 166.052 55.5067C166.552 58.468 171.255 58.2313 170.752 55.2384C169.485 47.7093 169.092 41.291 174.362 35.1224C179.107 29.5707 186.481 23.7469 193.844 22.692C207.333 20.7613 222.768 27.681 233.31 35.5119C239.145 39.8467 244.479 44.7853 245.396 52.3162C246.259 59.4092 244.392 66.8581 240.32 72.7042C236.689 77.9149 230.774 81.2359 224.548 82.0876C216.953 83.1275 209.655 78.6735 204.065 74.0349C193.345 65.1435 188.36 50.3277 193.336 37.0867C195.371 31.6691 199.357 27.5151 204.348 24.7271C210.956 21.0353 218.044 22.6548 223.819 27.0119C229.984 31.6617 233.53 38.4602 230.837 46.0861C228.275 53.3394 219.533 56.6491 212.572 54.163C205.541 51.649 204.989 41.9712 206.116 35.7691C207.514 28.0667 215.513 23.2288 222.63 21.9335C236.083 19.4847 248.683 28.9184 249.231 42.603C249.826 57.5027 233.64 64.2937 221.061 64.1167C206.7 63.9154 192.523 53.3188 187.21 40.2045C181.673 26.5404 188.406 11.5103 200.073 3.64208C206.616 -0.77098 213.066 -0.789619 220.131 2.19404C227.522 5.31375 234.13 10.6698 236.931 18.3554C242.753 34.3229 224.104 44.9288 211.685 35.3498C199.329 25.8211 204.566 7.89858 215.209 -0.336774C220.675 -4.56534 227.324 -6.69362 234.082 -4.87845C240.985 -3.02228 246.734 2.62454 250.508 8.43532C252.934 12.17 254.358 16.5048 255.012 20.8843C255.46 23.8624 260.163 23.622 259.714 20.6159Z" fill="#FCDB9A"/>
<path d="M199.53 -13.5239L200.462 -9.16861L203.183 -3.3821L204.756 92.5368L202.104 102.571L200.017 105.8L199.53 -13.5239Z" fill="url(#paint1_radial_160_1407)"/>
<path d="M201.724 92.8627C201.888 92.8925 202.007 92.9148 202.11 92.9372C202.223 92.9409 202.376 92.9465 202.602 92.9614C203.243 93.0005 203.878 93.0248 204.519 93.0323C204.555 93.0323 204.588 93.0379 204.624 93.0397L204.756 92.5384L203.185 -3.38052L203.028 -3.71411C202.987 -3.68988 202.946 -3.66936 202.905 -3.64514C202.551 -3.43641 202.199 -3.2221 201.851 -3.00219C201.7 -2.86056 200.978 -2.29215 200.788 -2.11138C200.418 -1.75542 200.011 -1.45722 199.584 -1.20377L199.965 92.4154C200.542 92.5868 201.126 92.7546 201.724 92.8627Z" fill="#8A6D3F"/>
<path d="M198.103 -33.582L193.85 122.688C193.85 122.688 197.678 125.027 200.015 122.688V-33.582C200.017 -33.582 199.592 -36.7725 198.103 -33.582Z" fill="#912828"/>
<path d="M199.113 -34.9651L195.03 123.245C195.03 123.245 196.824 123.887 198.028 123.68L197.935 116.924L199.113 -34.9651Z" fill="#B95F5F"/>
<path d="M199.113 -34.965L196.645 123.648C196.645 123.648 199.869 124.03 200.017 122.686L199.456 -34.9352C199.456 -34.9352 199.256 -35.0414 199.113 -34.965C199.113 -34.965 198.969 -34.8868 199.113 -34.965Z" fill="#AF4040"/>
<path d="M198.004 54.8154C198.004 55.5646 197.741 56.174 197.417 56.174C197.093 56.174 196.83 55.5664 196.83 54.8154C196.83 54.0662 197.093 53.4568 197.417 53.4568C197.741 53.4568 198.004 54.0643 198.004 54.8154Z" fill="#FFA773"/>
<path d="M186.658 4.1863L187.162 9.53303L189.131 86.894L187.896 89.1993C187.896 89.1993 186.524 90.6194 186.66 92.0208L184.715 91.3499L185.182 0.30249L186.658 4.1863Z" fill="url(#paint2_radial_160_1407)"/>
<path d="M187.107 8.97021C187.055 9.02612 187.003 9.08019 186.949 9.1361C186.433 9.87037 185.814 10.5002 185.126 11.009L184.748 84.5589C185.218 84.7135 185.676 84.9036 186.097 85.1813C186.643 85.541 187.158 85.9416 187.666 86.3516C188.06 86.6442 188.462 86.9163 188.915 87.1195C188.939 87.1307 188.962 87.1474 188.986 87.1586L189.129 86.8921L187.16 9.53117L187.107 8.97021Z" fill="#8A6D3F"/>
<path d="M183.704 -33.582L179.452 122.688C179.452 122.688 183.28 125.027 185.617 122.688V-33.582C185.618 -33.582 185.193 -36.7725 183.704 -33.582Z" fill="#912828"/>
<path d="M184.715 -34.9651L180.631 123.245C180.631 123.245 182.426 123.887 183.63 123.68L183.537 116.924L184.715 -34.9651Z" fill="#B95F5F"/>
<path d="M184.715 -34.965L182.247 123.648C182.247 123.648 185.471 124.03 185.618 122.686L185.058 -34.9352C185.056 -34.9352 184.856 -35.0414 184.715 -34.965C184.715 -34.965 184.571 -34.8868 184.715 -34.965Z" fill="#AF4040"/>
<path d="M183.606 54.8154C183.606 55.5646 183.343 56.174 183.019 56.174C182.695 56.174 182.432 55.5664 182.432 54.8154C182.432 54.0662 182.695 53.4568 183.019 53.4568C183.343 53.4568 183.606 54.0643 183.606 54.8154Z" fill="#FFA773"/>
<path d="M187.161 9.53271L190.658 87.1583L189.131 86.8918L187.161 9.53271Z" fill="#FFD38F"/>
<path d="M203.183 -3.38232L205.678 92.613L204.622 93.0379L203.183 -3.38232Z" fill="#FFD38F"/>
<path d="M197.417 99.7697C197.417 100.811 197.029 101.658 196.55 101.658C196.071 101.658 195.684 100.811 195.684 99.7697C195.684 98.7279 196.071 97.8818 196.55 97.8818C197.029 97.8818 197.417 98.726 197.417 99.7697Z" fill="white"/>
<path d="M182.726 62.0985C182.99 62.0985 183.205 61.6655 183.205 61.1313C183.205 60.5971 182.99 60.1641 182.726 60.1641C182.461 60.1641 182.247 60.5971 182.247 61.1313C182.247 61.6655 182.461 62.0985 182.726 62.0985Z" fill="white"/>
<path d="M260.303 75.0092C276.28 75.0092 289.232 62.6329 289.232 47.3661C289.232 32.0992 276.28 19.7229 260.303 19.7229C244.326 19.7229 231.374 32.0992 231.374 47.3661C231.374 62.6329 244.326 75.0092 260.303 75.0092Z" fill="#5C1A09"/>
<path d="M259.697 74.3718C275.34 74.3718 288.021 62.1383 288.021 47.0474C288.021 31.9565 275.34 19.7229 259.697 19.7229C244.055 19.7229 231.374 31.9565 231.374 47.0474C231.374 62.1383 244.055 74.3718 259.697 74.3718Z" fill="#6A2A2A"/>
<path d="M259.507 73.1552C274.783 73.1552 287.166 60.7717 287.166 45.4958C287.166 30.22 274.783 17.8364 259.507 17.8364C244.231 17.8364 231.847 30.22 231.847 45.4958C231.847 60.7717 244.231 73.1552 259.507 73.1552Z" fill="#D34040"/>
<path d="M259.507 72.0536C274.174 72.0536 286.064 60.1634 286.064 45.496C286.064 30.8287 274.174 18.9385 259.507 18.9385C244.84 18.9385 232.949 30.8287 232.949 45.496C232.949 60.1634 244.84 72.0536 259.507 72.0536Z" fill="#F35C53"/>
<path d="M277.75 63.75C287.829 53.6708 287.829 37.3292 277.75 27.25C267.671 17.1708 251.329 17.1708 241.25 27.25C231.171 37.3292 231.171 53.6708 241.25 63.75C251.329 73.8292 267.671 73.8292 277.75 63.75Z" fill="#F35C53"/>
<path d="M259.507 70.9605C273.571 70.9605 284.971 59.5596 284.971 45.4959C284.971 31.4322 273.571 20.0312 259.507 20.0312C245.443 20.0312 234.042 31.4322 234.042 45.4959C234.042 59.5596 245.443 70.9605 259.507 70.9605Z" fill="#C02E24"/>
<path d="M277.053 63.0527C286.747 53.3586 286.747 37.6414 277.053 27.9473C267.359 18.2532 251.641 18.2532 241.947 27.9473C232.253 37.6414 232.253 53.3586 241.947 63.0527C251.641 72.7468 267.359 72.7468 277.053 63.0527Z" fill="#FF9D97"/>
<path d="M277.736 61.2655C286.089 51.2066 284.607 36.1997 274.427 27.7467C264.248 19.2937 249.224 20.5954 240.871 30.6543C232.519 40.7131 234 55.72 244.18 64.173C254.36 72.6261 269.384 71.3243 277.736 61.2655Z" fill="#DF6565"/>
<path d="M259.507 66.6691C271.2 66.6691 280.68 57.1896 280.68 45.496C280.68 33.8025 271.2 24.323 259.507 24.323C247.813 24.323 238.334 33.8025 238.334 45.496C238.334 57.1896 247.813 66.6691 259.507 66.6691Z" fill="#FF9D97"/>
<path d="M266.298 64.6483C276.873 60.8818 282.393 49.2556 278.626 38.6803C274.86 28.105 263.233 22.5854 252.658 26.3519C242.083 30.1183 236.563 41.7446 240.33 52.3198C244.096 62.8951 255.722 68.4147 266.298 64.6483Z" fill="#FF8585"/>
<path d="M259.507 64.1205C269.793 64.1205 278.131 55.7821 278.131 45.4962C278.131 35.2102 269.793 26.8718 259.507 26.8718C249.221 26.8718 240.882 35.2102 240.882 45.4962C240.882 55.7821 249.221 64.1205 259.507 64.1205Z" fill="#F26C6C"/>
<path d="M259.507 63.4747C269.436 63.4747 277.485 55.4254 277.485 45.4959C277.485 35.5665 269.436 27.5171 259.507 27.5171C249.577 27.5171 241.528 35.5665 241.528 45.4959C241.528 55.4254 249.577 63.4747 259.507 63.4747Z" fill="#FF8585"/>
<path d="M267.572 47.4685C268.655 43.0028 265.913 38.5046 261.447 37.4215C256.981 36.3383 252.483 39.0805 251.4 43.5462C250.317 48.0119 253.059 52.5101 257.525 53.5932C261.99 54.6763 266.489 51.9342 267.572 47.4685Z" fill="#CA4844"/>
<path d="M260.191 53.0284C264.374 52.6405 267.452 48.9345 267.064 44.7506C266.676 40.5668 262.97 37.4895 258.786 37.8774C254.602 38.2652 251.525 41.9713 251.913 46.1551C252.301 50.3389 256.007 53.4162 260.191 53.0284Z" fill="#FF928A"/>
<path d="M260.146 52.5508C264.065 52.1875 266.948 48.7156 266.584 44.7962C266.221 40.8768 262.749 37.9939 258.83 38.3573C254.91 38.7206 252.028 42.1925 252.391 46.1119C252.754 50.0314 256.226 52.9141 260.146 52.5508Z" fill="#FF685F"/>
<path d="M268.62 27.1299C266.472 30.7737 264.321 34.4198 262.173 38.0636C262.26 38.3864 262.696 38.4999 263.003 38.3664C263.311 38.2328 263.511 37.939 263.696 37.6585C264.953 35.7576 266.211 33.8566 267.36 31.8889C268.096 30.6268 268.806 29.2868 268.902 27.8288C268.918 27.5795 268.867 27.2612 268.624 27.2011L268.62 27.1299Z" fill="#CA4844"/>
<path d="M260.426 42.4841C262.189 39.3144 263.952 36.1425 265.713 32.9728C267.004 30.6489 268.31 28.2916 268.994 25.7407C271.614 26.2393 274.058 27.4858 275.974 29.3C270.721 33.8765 265.786 38.8336 261.23 44.1158L260.426 42.4841Z" fill="#DF6565"/>
<path d="M263.168 45.5208C266.596 46.0505 270.024 46.5803 273.452 47.1101C275.965 47.4996 278.512 47.8891 281.04 47.6309C281.403 50.2442 281.031 52.9553 279.981 55.3772C274.189 52.0895 268.154 49.2314 261.94 46.8385L263.168 45.5208Z" fill="#DF6565"/>
<path d="M244.048 60.1647C246.922 56.7568 250.561 54.0969 254.165 51.4703C253.942 51.0963 253.646 50.7646 253.299 50.4998C251.405 51.9644 249.604 53.547 247.908 55.2365C246.405 56.7323 244.967 58.3439 244.052 60.256L244.048 60.1647Z" fill="#CA4844"/>
<path d="M256.829 48.002C254.249 50.3215 251.669 52.6387 249.092 54.9581C247.2 56.6587 245.288 58.3816 243.885 60.5029C241.633 59.1295 239.767 57.1261 238.559 54.78C244.769 52.376 250.801 49.5112 256.586 46.2124L256.829 48.002Z" fill="#DF6565"/>
<path d="M260.056 66.8916C259.251 62.3462 258.886 57.7207 258.968 53.1042C259.371 52.9817 259.792 52.9261 260.212 52.9394C261.096 57.4959 261.141 62.2149 260.344 66.7892L260.056 66.8916Z" fill="#CA4844"/>
<path d="M260.651 49.1885C261.839 52.4473 263.026 55.706 264.215 58.9648C265.085 61.3532 265.971 63.7728 267.415 65.8652C265.301 67.4434 262.745 68.425 260.119 68.6699C260.208 62.0121 259.801 55.3455 258.901 48.7478L260.651 49.1885Z" fill="#DF6565"/>
<path d="M242.238 32.8456C243.509 33.1128 244.35 34.2725 245.245 35.214C247.464 37.5557 250.614 38.9358 252.546 41.5201C252.74 41.2841 252.934 41.0482 253.127 40.8122C253.187 40.7388 253.25 40.6609 253.256 40.5674C253.265 40.4494 253.185 40.3448 253.109 40.2535C250.55 37.1906 247.767 34.1255 244.112 32.5206C243.442 32.2268 242.605 32.0042 242.024 32.4472C242.02 32.5362 242.013 32.6275 242.006 32.7165L242.238 32.8456Z" fill="#CA4844"/>
<path d="M256.057 43.1165C253.33 40.9729 250.605 38.8271 247.878 36.6836C245.88 35.1121 243.854 33.5227 241.523 32.5055C242.492 30.0503 244.146 27.8711 246.249 26.2773C249.682 31.9846 253.537 37.4359 257.777 42.5711L256.057 43.1165Z" fill="#DF6565"/>
<path d="M258.327 36.7742C257 35.6991 256.319 33.8827 256.613 32.1999C256.751 31.4075 257.152 30.5883 257.893 30.27C258.848 29.8605 260.014 30.4993 260.455 31.4409C260.893 32.3824 260.749 33.5021 260.386 34.4748C260.023 35.452 259.453 36.3513 258.723 37.097C258.63 37.048 258.407 36.8388 258.327 36.7742Z" fill="#CA4844"/>
<path d="M258.572 35.8995C257.481 35.0158 256.922 33.5222 257.163 32.1399C257.276 31.4877 257.606 30.8133 258.213 30.5528C258.997 30.2145 259.959 30.742 260.319 31.5166C260.68 32.2913 260.56 33.2106 260.263 34.0119C259.965 34.8155 259.496 35.5545 258.897 36.1688C258.821 36.1243 258.639 35.9529 258.572 35.8995Z" fill="#FAD383"/>
<path d="M259.709 32.5743C259.438 32.9015 258.952 32.946 258.623 32.6744C258.294 32.4029 258.251 31.9176 258.523 31.5882C258.794 31.261 259.28 31.2165 259.609 31.488C259.936 31.7596 259.981 32.2471 259.709 32.5743Z" fill="#E4B34C"/>
<path d="M259.342 34.6239C259.155 34.8487 258.826 34.8866 258.607 34.704C258.389 34.5237 258.365 34.1921 258.552 33.9672C258.739 33.7424 259.068 33.7046 259.286 33.8871C259.504 34.0674 259.529 34.3991 259.342 34.6239Z" fill="#E4B34C"/>
<path d="M259.607 31.9866C259.471 32.1513 259.204 32.1513 259.008 31.9911C258.814 31.8286 258.765 31.5659 258.901 31.4012C259.037 31.2365 259.306 31.2365 259.5 31.3967C259.696 31.5592 259.743 31.8241 259.607 31.9866Z" fill="#FFEAB8"/>
<path d="M250.717 45.2509C249.561 46.5086 247.705 47.074 246.044 46.6755C245.261 46.4886 244.468 46.0367 244.197 45.2776C243.847 44.3005 244.56 43.1742 245.526 42.7935C246.492 42.4129 247.6 42.6288 248.549 43.0517C249.501 43.4746 250.365 44.1001 251.062 44.8748C251.008 44.9638 250.786 45.173 250.717 45.2509Z" fill="#CA4844"/>
<path d="M249.86 44.9512C248.909 45.984 247.385 46.4492 246.018 46.1242C245.375 45.9707 244.722 45.5989 244.5 44.9757C244.213 44.1721 244.798 43.2461 245.593 42.9345C246.387 42.6229 247.298 42.7987 248.079 43.146C248.863 43.4932 249.57 44.0074 250.145 44.644C250.1 44.7152 249.918 44.8888 249.86 44.9512Z" fill="#FAD383"/>
<path d="M246.61 43.6068C246.919 43.8984 246.935 44.3858 246.643 44.6952C246.352 45.0046 245.864 45.0202 245.555 44.7286C245.245 44.437 245.23 43.9496 245.521 43.6402C245.813 43.3307 246.3 43.3152 246.61 43.6068Z" fill="#E4B34C"/>
<path d="M248.635 44.1028C248.849 44.3031 248.865 44.6348 248.671 44.8418C248.477 45.0488 248.146 45.0533 247.932 44.8507C247.718 44.6504 247.703 44.3187 247.896 44.1117C248.09 43.9047 248.422 43.9002 248.635 44.1028Z" fill="#FFE199"/>
<path d="M246.02 43.6735C246.176 43.8204 246.16 44.0875 245.987 44.2723C245.813 44.457 245.546 44.4882 245.392 44.3413C245.236 44.1944 245.252 43.9273 245.426 43.7425C245.597 43.5578 245.864 43.5266 246.02 43.6735Z" fill="#FFEAB8"/>
<path d="M256.31 53.7247C256.876 55.3363 256.502 57.2394 255.371 58.5193C254.837 59.1226 254.067 59.6101 253.27 59.4921C252.241 59.3407 251.585 58.1832 251.703 57.1504C251.823 56.1176 252.533 55.2428 253.352 54.6039C254.173 53.9629 255.131 53.4954 256.143 53.2439C256.195 53.3329 256.277 53.6268 256.31 53.7247Z" fill="#CA4844"/>
<path d="M255.642 54.3391C256.108 55.6635 255.8 57.2284 254.87 58.2812C254.432 58.7776 253.797 59.1783 253.143 59.0803C252.297 58.9557 251.756 58.0052 251.856 57.1549C251.956 56.3046 252.539 55.5856 253.212 55.0603C253.886 54.5328 254.674 54.1499 255.507 53.9407C255.549 54.0164 255.614 54.259 255.642 54.3391Z" fill="#FFE199"/>
<path d="M252.929 56.5743C253.332 56.4385 253.77 56.6544 253.906 57.0573C254.042 57.4602 253.826 57.8987 253.423 58.0345C253.02 58.1703 252.582 57.9544 252.446 57.5515C252.308 57.1486 252.526 56.7101 252.929 56.5743Z" fill="#E4B34C"/>
<path d="M254.318 55.0202C254.596 54.9267 254.894 55.0691 254.986 55.3362C255.077 55.6056 254.925 55.8994 254.647 55.9929C254.369 56.0864 254.071 55.9439 253.979 55.6768C253.888 55.4075 254.04 55.1137 254.318 55.0202Z" fill="#E4B34C"/>
<path d="M252.709 57.126C252.911 57.057 253.14 57.1972 253.221 57.4376C253.301 57.678 253.203 57.9273 253.002 57.9941C252.8 58.0631 252.571 57.9229 252.491 57.6825C252.41 57.4443 252.508 57.195 252.709 57.126Z" fill="#FFEAB8"/>
<path d="M266.48 23.2604C266.878 22.7818 266.735 22.0074 266.161 21.5307C265.587 21.0539 264.799 21.0554 264.402 21.5339C264.004 22.0124 264.147 22.7869 264.721 23.2636C265.296 23.7404 266.083 23.7389 266.48 23.2604Z" fill="#FFEAB8"/>
<path d="M260.869 22.1924C260.589 22.5285 260.134 22.6109 259.852 22.3771C259.569 22.1434 259.567 21.6804 259.847 21.3443C260.128 21.0082 260.582 20.9258 260.865 21.1596C261.147 21.3933 261.149 21.8563 260.869 22.1924Z" fill="#FFEAB8"/>
<path d="M258.042 70.4284C257.828 70.6843 257.348 70.6376 256.967 70.3238C256.586 70.0077 256.453 69.5447 256.666 69.2865C256.88 69.0305 257.361 69.0772 257.742 69.3911C258.122 69.7072 258.256 70.1702 258.042 70.4284Z" fill="#FFEAB8"/>
<path d="M252.444 65.3846C252.337 65.5137 252.137 65.5226 251.996 65.4069C251.856 65.2911 251.829 65.093 251.936 64.9639C252.043 64.8348 252.243 64.8259 252.384 64.9417C252.524 65.0574 252.551 65.2577 252.444 65.3846Z" fill="#FFEAB8"/>
<path d="M213.847 23.3423C215.77 23.3423 217.33 22.5625 217.33 21.6007C217.33 20.6389 215.77 19.8591 213.847 19.8591C211.923 19.8591 210.363 20.6389 210.363 21.6007C210.363 22.5625 211.923 23.3423 213.847 23.3423Z" fill="white"/>
<path d="M212.105 39.8875C213.067 39.8875 213.847 39.3027 213.847 38.5813C213.847 37.8599 213.067 37.2751 212.105 37.2751C211.143 37.2751 210.363 37.8599 210.363 38.5813C210.363 39.3027 211.143 39.8875 212.105 39.8875Z" fill="white"/>
<path d="M215.588 57.7384C215.588 57.9779 215.199 58.1738 214.717 58.1738C214.236 58.1738 213.846 57.9795 213.846 57.7384C213.846 57.4972 214.236 57.303 214.717 57.303C215.199 57.303 215.588 57.4988 215.588 57.7384Z" fill="white"/>
<path d="M219.942 84.7324C219.942 85.4533 219.357 86.0386 218.636 86.0386C217.915 86.0386 217.33 85.4533 217.33 84.7324C217.33 84.0116 217.915 83.4263 218.636 83.4263C219.359 83.4263 219.942 84.0116 219.942 84.7324Z" fill="white"/>
</g>
<circle cx="26" cy="146" r="10.5" fill="#C4C4C4" stroke="white"/>
<mask id="mask1_160_1407" style="mask-type:alpha" maskUnits="userSpaceOnUse" x="16" y="136" width="20" height="20">
<circle cx="26" cy="146" r="10" fill="#C4C4C4"/>
</mask>
<g mask="url(#mask1_160_1407)">
<circle cx="26" cy="146" r="10" fill="#C4C4C4"/>
</g>
<path d="M27.3023 54.3023C23.5539 58.0506 17.2576 57.8315 17.2576 57.8315C17.2576 57.8315 17.0385 51.5352 20.7868 47.7869C24.5351 44.0386 30.8314 44.2577 30.8314 44.2577C30.8314 44.2577 31.0506 50.554 27.3023 54.3023Z" fill="#FFB929"/>
<path d="M108.224 64.011C108.378 63.742 108.398 63.4167 108.279 63.1305L104.847 54.8784C104.528 54.1118 103.468 54.0452 103.055 54.766L101.549 57.4004C101.395 57.6694 101.374 57.9947 101.493 58.2809L104.926 66.533C105.244 67.2996 106.305 67.3662 106.717 66.6454L108.224 64.011Z" fill="#FFB929"/>
<circle cx="51" cy="9" r="4" fill="#FFB929"/>
<defs>
<linearGradient id="paint0_linear_160_1407" x1="300" y1="-25" x2="158.057" y2="165.041" gradientUnits="userSpaceOnUse">
<stop stop-color="white"/>
<stop offset="1" stop-color="white" stop-opacity="0"/>
</linearGradient>
<radialGradient id="paint1_radial_160_1407" cx="0" cy="0" r="1" gradientUnits="userSpaceOnUse" gradientTransform="translate(202.143 46.1376) scale(42.2281 42.2281)">
<stop stop-color="#330902"/>
<stop offset="1" stop-color="#170300"/>
</radialGradient>
<radialGradient id="paint2_radial_160_1407" cx="0" cy="0" r="1" gradientUnits="userSpaceOnUse" gradientTransform="translate(186.923 46.1599) scale(32.4644 32.4645)">
<stop stop-color="#330902"/>
<stop offset="1" stop-color="#170300"/>
</radialGradient>
</defs>
</svg>
